<svg viewBox="0 0 24 24" fill="none" xmlns="http://www.w3.org/2000/svg">
<path fill-rule="evenodd" clip-rule="evenodd" d="M2 12C2 6.47715 6.47715 2 12 2C17.5229 2 22 6.47715 22 12C22 17.5229 17.5229 22 12 22C6.47715 22 2 17.5229 2 12ZM12 3.39535C7.24778 3.39535 3.39535 7.24778 3.39535 12C3.39535 16.7522 7.24778 20.6047 12 20.6047C16.7522 20.6047 20.6047 16.7522 20.6047 12C20.6047 7.24778 16.7522 3.39535 12 3.39535Z" fill="black"/>
<path fill-rule="evenodd" clip-rule="evenodd" d="M12 7.5814C12.3853 7.5814 12.6977 7.89375 12.6977 8.27907V15.7209C12.6977 16.1062 12.3853 16.4186 12 16.4186C11.6147 16.4186 11.3023 16.1062 11.3023 15.7209V8.27907C11.3023 7.89375 11.6147 7.5814 12 7.5814Z" fill="black"/>
<path fill-rule="evenodd" clip-rule="evenodd" d="M7.5814 12C7.5814 11.6147 7.89375 11.3023 8.27907 11.3023H15.7209C16.1062 11.3023 16.4186 11.6147 16.4186 12C16.4186 12.3853 16.1062 12.6977 15.7209 12.6977H8.27907C7.89375 12.6977 7.5814 12.3853 7.5814 12Z" fill="black"/>
</svg>
