<svg width="20" height="18" viewBox="0 0 20 18" fill="none" xmlns="http://www.w3.org/2000/svg">
<path d="M3.72093 3.92308C3.72093 1.75642 5.49096 0 7.67442 0C9.85787 0 11.6279 1.75642 11.6279 3.92308C11.6279 6.08974 9.85787 7.84615 7.67442 7.84615C5.49096 7.84615 3.72093 6.08974 3.72093 3.92308ZM7.67442 1.38462C6.2616 1.38462 5.11628 2.52112 5.11628 3.92308C5.11628 5.32503 6.26159 6.46154 7.67442 6.46154C9.08724 6.46154 10.2326 5.32503 10.2326 3.92308C10.2326 2.52112 9.08724 1.38462 7.67442 1.38462ZM8.72838 10.1538C9.74432 10.1538 10.5494 10.1538 11.1984 10.2064C11.862 10.2602 12.4235 10.3725 12.9362 10.6317C13.7676 11.0521 14.4436 11.7229 14.8673 12.5479C15.1285 13.0567 15.2416 13.6139 15.2958 14.2724C15.3488 14.9163 15.3488 15.7152 15.3488 16.7233V17.3077C15.3488 17.69 15.0365 18 14.6512 18H0.697675C0.31236 18 1.03319e-07 17.69 1.03319e-07 17.3077V16.7234C-5.11775e-06 15.7153 -9.32882e-06 14.9163 0.0530122 14.2724C0.107232 13.6139 0.220356 13.0567 0.4816 12.5479C0.90522 11.7229 1.58118 11.0521 2.4126 10.6317C2.92532 10.3725 3.48685 10.2602 4.15046 10.2064C4.79941 10.1538 5.60451 10.1538 6.62044 10.1538H8.72838ZM3.04606 11.8654C2.47721 12.1531 2.01471 12.612 1.72487 13.1765C1.58055 13.4576 1.4909 13.8122 1.44373 14.3851C1.39803 14.9401 1.39549 15.6424 1.39536 16.6154H13.9535C13.9533 15.6424 13.9508 14.9401 13.9051 14.3851C13.8579 13.8123 13.7683 13.4576 13.624 13.1765C13.3341 12.612 12.8716 12.1531 12.3028 11.8654C12.0195 11.7222 11.6621 11.6333 11.0848 11.5865C10.4993 11.539 9.75114 11.5385 8.69767 11.5385H6.65116C5.5977 11.5385 4.84956 11.539 4.26408 11.5865C3.68677 11.6333 3.3293 11.7222 3.04606 11.8654ZM17.2093 3.92308C17.2093 3.54073 16.8969 3.23077 16.5116 3.23077C16.1263 3.23077 15.814 3.54073 15.814 3.92308V6H13.7209C13.3356 6 13.0233 6.30996 13.0233 6.69231C13.0233 7.07466 13.3356 7.38462 13.7209 7.38462H15.814V9.46154C15.814 9.84389 16.1263 10.1538 16.5116 10.1538C16.8969 10.1538 17.2093 9.84389 17.2093 9.46154V7.38462H19.3023C19.6876 7.38462 20 7.07466 20 6.69231C20 6.30996 19.6876 6 19.3023 6H17.2093V3.92308Z" fill="white"/>
</svg>
