<svg viewBox="0 0 24 24" fill="none" xmlns="http://www.w3.org/2000/svg">
<path d="M19.6647 17.5861C19.3774 18.2848 19.0374 18.928 18.6434 19.5193C18.1064 20.3255 17.6667 20.8835 17.3279 21.1934C16.8026 21.702 16.2398 21.9625 15.6371 21.9773C15.2045 21.9773 14.6827 21.8477 14.0753 21.5847C13.466 21.323 12.906 21.1934 12.394 21.1934C11.857 21.1934 11.281 21.323 10.665 21.5847C10.048 21.8477 9.55099 21.9847 9.17098 21.9983C8.59305 22.0242 8.017 21.7563 7.442 21.1934C7.07501 20.8563 6.61598 20.2786 6.06607 19.4601C5.47607 18.586 4.991 17.5725 4.61099 16.417C4.20402 15.1689 4 13.9603 4 12.7902C4 11.4498 4.27507 10.2938 4.82603 9.32509C5.25904 8.54696 5.83509 7.93316 6.55606 7.48255C7.27703 7.03195 8.05605 6.80233 8.89497 6.78763C9.35401 6.78763 9.95597 6.93714 10.704 7.23096C11.45 7.52576 11.9289 7.67526 12.1389 7.67526C12.2959 7.67526 12.828 7.50045 13.73 7.15195C14.583 6.82874 15.3029 6.69492 15.8927 6.74764C17.4908 6.88343 18.6915 7.54675 19.49 8.74177C18.0607 9.6536 17.3537 10.9307 17.3677 12.5691C17.3806 13.8452 17.8203 14.9071 18.6845 15.7503C19.0761 16.1417 19.5134 16.4441 20 16.6589C19.8945 16.9812 19.7831 17.2898 19.6647 17.5861ZM15.9994 2.40011C15.9994 3.40034 15.6524 4.33425 14.9606 5.19867C14.1258 6.22629 13.116 6.8201 12.021 6.7264C12.007 6.60641 11.9989 6.48011 11.9989 6.3474C11.9989 5.38718 12.396 4.35956 13.101 3.51934C13.453 3.09392 13.9006 2.74019 14.4435 2.45801C14.9852 2.18005 15.4976 2.02632 15.9795 2C15.9936 2.13371 15.9994 2.26744 15.9994 2.4001V2.40011Z" fill="#0F172A"/>
</svg>
