<svg viewBox="0 0 24 24" fill="none" xmlns="http://www.w3.org/2000/svg">
<path fill-rule="evenodd" clip-rule="evenodd" d="M4.92893 4.92893C6.73783 3.12005 9.23879 2 12 2C14.7612 2 17.2622 3.12005 19.0711 4.92893C20.8799 6.73783 22 9.23879 22 12C22 14.7612 20.8799 17.2622 19.0711 19.0711C17.2622 20.8799 14.7612 22 12 22C9.23879 22 6.73783 20.8799 4.92893 19.0711C3.12006 17.2622 2 14.7612 2 12C2 9.23879 3.12006 6.73783 4.92893 4.92893ZM12 3.39535C9.62372 3.39535 7.47351 4.35769 5.91559 5.91559C4.35769 7.47352 3.39535 9.62372 3.39535 12C3.39535 14.3763 4.35769 16.5265 5.91559 18.0844C7.47352 19.6423 9.62372 20.6047 12 20.6047C14.3763 20.6047 16.5265 19.6423 18.0844 18.0844C19.6423 16.5265 20.6047 14.3763 20.6047 12C20.6047 9.62372 19.6423 7.47352 18.0844 5.91559C16.5265 4.35769 14.3763 3.39535 12 3.39535Z" fill="black"/>
<path fill-rule="evenodd" clip-rule="evenodd" d="M12 18.0465C12.6422 18.0465 13.1628 17.5259 13.1628 16.8837C13.1628 16.2415 12.6422 15.7209 12 15.7209C11.3578 15.7209 10.8372 16.2415 10.8372 16.8837C10.8372 17.5259 11.3578 18.0465 12 18.0465Z" fill="black"/>
<path fill-rule="evenodd" clip-rule="evenodd" d="M12 5.72093C12.3853 5.72093 12.6977 6.03329 12.6977 6.4186V13.8605C12.6977 14.2458 12.3853 14.5581 12 14.5581C11.6147 14.5581 11.3023 14.2458 11.3023 13.8605V6.4186C11.3023 6.03329 11.6147 5.72093 12 5.72093Z" fill="black"/>
</svg>
