<svg viewBox="0 0 24 24" fill="none" xmlns="http://www.w3.org/2000/svg">
<path d="M12 1.25C9.0317 1.25 6.34317 2.45406 4.3986 4.3986C2.45407 6.34316 1.25 9.0317 1.25 12C1.25 14.9683 2.45406 17.6568 4.3986 19.6014C6.34317 21.5459 9.0317 22.75 12 22.75C14.9683 22.75 17.6568 21.5459 19.6014 19.6014C21.5459 17.6568 22.75 14.9683 22.75 12C22.75 9.0317 21.5459 6.34317 19.6014 4.3986C17.6568 2.45406 14.9683 1.25 12 1.25ZM12 18.5C11.3097 18.5 10.75 17.9403 10.75 17.25C10.75 16.5597 11.3097 16 12 16C12.6903 16 13.25 16.5597 13.25 17.25C13.25 17.9403 12.6903 18.5 12 18.5ZM12.75 6V14C12.75 14.4142 12.4142 14.75 12 14.75C11.5858 14.75 11.25 14.4142 11.25 14V6C11.25 5.58579 11.5858 5.25 12 5.25C12.4142 5.25 12.75 5.58579 12.75 6Z" fill="black"/>
</svg>
