<svg viewBox="0 0 24 24" fill="none" xmlns="http://www.w3.org/2000/svg">
<path fill-rule="evenodd" clip-rule="evenodd" d="M4.92893 4.92893C6.73783 3.12005 9.23879 2 12 2C14.7612 2 17.2622 3.12005 19.0711 4.92893C20.8799 6.73783 22 9.23879 22 12C22 14.7612 20.8799 17.2622 19.0711 19.0711C17.2622 20.8799 14.7612 22 12 22C9.23879 22 6.73783 20.8799 4.92893 19.0711C3.12006 17.2622 2 14.7612 2 12C2 9.23879 3.12006 6.73783 4.92893 4.92893ZM12 3.39535C9.62372 3.39535 7.47351 4.35769 5.91559 5.91559C4.35769 7.47352 3.39535 9.62372 3.39535 12C3.39535 14.3763 4.35769 16.5265 5.91559 18.0844C7.47352 19.6423 9.62372 20.6047 12 20.6047C14.3763 20.6047 16.5265 19.6423 18.0844 18.0844C19.6423 16.5265 20.6047 14.3763 20.6047 12C20.6047 9.62372 19.6423 7.47352 18.0844 5.91559C16.5265 4.35769 14.3763 3.39535 12 3.39535Z" fill="black"/>
<path fill-rule="evenodd" clip-rule="evenodd" d="M17.1445 8.71597C17.417 8.98843 17.417 9.43017 17.1445 9.70263L11.5631 15.284C11.2906 15.5565 10.8489 15.5565 10.5764 15.284L7.78574 12.4933C7.51328 12.2209 7.51328 11.7791 7.78574 11.5067C8.0582 11.2342 8.49994 11.2342 8.7724 11.5067L11.0698 13.804L16.1578 8.71597C16.4303 8.44351 16.872 8.44351 17.1445 8.71597Z" fill="black"/>
</svg>
