<svg viewBox="0 0 24 24" fill="none" xmlns="http://www.w3.org/2000/svg">
<path d="M4.92893 4.92893C6.73783 3.12005 9.23879 2 12 2C14.7612 2 17.2622 3.12005 19.0711 4.92893C20.8799 6.73783 22 9.23879 22 12C22 14.7612 20.8799 17.2622 19.0711 19.0711C17.2622 20.8799 14.7612 22 12 22C9.23879 22 6.73783 20.8799 4.92893 19.0711C3.12006 17.2622 2 14.7612 2 12C2 9.23879 3.12006 6.73783 4.92893 4.92893ZM17.1445 9.70263C17.417 9.43017 17.417 8.98843 17.1445 8.71597C16.872 8.44351 16.4303 8.44351 16.1578 8.71597L11.0698 13.804L8.7724 11.5067C8.49994 11.2342 8.0582 11.2342 7.78574 11.5067C7.51328 11.7791 7.51328 12.2209 7.78574 12.4933L10.5764 15.284C10.8489 15.5565 11.2906 15.5565 11.5631 15.284L17.1445 9.70263Z" fill="black"/>
</svg>
