<svg viewBox="0 0 24 24" fill="none" xmlns="http://www.w3.org/2000/svg">
<path d="M12 2C6.47715 2 2 6.47715 2 12C2 17.5229 6.47715 22 12 22C17.5229 22 22 17.5229 22 12C22 6.47715 17.5229 2 12 2ZM15.1242 8.87563C15.3967 9.14809 15.3967 9.58983 15.1242 9.86229L12.9865 12.0001L15.1242 14.1378C15.3967 14.4103 15.3967 14.852 15.1242 15.1245C14.8518 15.3969 14.41 15.3969 14.1376 15.1245L11.9998 12.9867L9.86206 15.1245C9.5896 15.3969 9.14786 15.3969 8.8754 15.1245C8.60294 14.852 8.60294 14.4103 8.8754 14.1378L11.0132 12.0001L8.8754 9.86229C8.60294 9.58983 8.60294 9.14809 8.8754 8.87563C9.14786 8.60317 9.5896 8.60317 9.86206 8.87563L11.9998 11.0134L14.1376 8.87563C14.41 8.60317 14.8518 8.60317 15.1242 8.87563Z" fill="black"/>
</svg>
