<svg viewBox="0 0 24 24" fill="none" xmlns="http://www.w3.org/2000/svg">
<path fill-rule="evenodd" clip-rule="evenodd" d="M2 12C2 6.47715 6.47715 2 12 2C17.5229 2 22 6.47715 22 12C22 17.5229 17.5229 22 12 22C6.47715 22 2 17.5229 2 12ZM12 3.39535C7.24778 3.39535 3.39535 7.24778 3.39535 12C3.39535 16.7522 7.24778 20.6047 12 20.6047C16.7522 20.6047 20.6047 16.7522 20.6047 12C20.6047 7.24778 16.7522 3.39535 12 3.39535Z" fill="black"/>
<path fill-rule="evenodd" clip-rule="evenodd" d="M15.1245 8.87557C15.3969 9.14803 15.3969 9.58977 15.1245 9.86223L9.86229 15.1244C9.58983 15.3969 9.14809 15.3969 8.87563 15.1244C8.60317 14.852 8.60317 14.4102 8.87563 14.1378L14.1378 8.87557C14.4103 8.60311 14.852 8.60311 15.1245 8.87557Z" fill="black"/>
<path fill-rule="evenodd" clip-rule="evenodd" d="M8.87563 8.87557C9.14809 8.60311 9.58983 8.60311 9.86229 8.87557L15.1245 14.1378C15.3969 14.4102 15.3969 14.852 15.1245 15.1244C14.852 15.3969 14.4103 15.3969 14.1378 15.1244L8.87563 9.86223C8.60317 9.58977 8.60317 9.14803 8.87563 8.87557Z" fill="black"/>
</svg>
