<svg viewBox="0 0 24 24" fill="none" xmlns="http://www.w3.org/2000/svg">
<path d="M4.32558 5.48837C4.32558 5.10306 4.63794 4.7907 5.02326 4.7907H18.9767C19.3621 4.7907 19.6744 5.10306 19.6744 5.48837V21.3023C19.6744 21.6876 19.3621 22 18.9767 22H5.02326C4.63794 22 4.32558 21.6876 4.32558 21.3023V5.48837ZM5.72093 6.18605V20.6047H18.2791V6.18605H5.72093Z" fill="black"/>
<path d="M10.1395 9.44186C10.5248 9.44186 10.8372 9.75422 10.8372 10.1395V16.186C10.8372 16.5714 10.5248 16.8837 10.1395 16.8837C9.75422 16.8837 9.44186 16.5714 9.44186 16.186V10.1395C9.44186 9.75422 9.75422 9.44186 10.1395 9.44186Z" fill="black"/>
<path d="M13.8605 9.44186C14.2458 9.44186 14.5581 9.75422 14.5581 10.1395V16.186C14.5581 16.5714 14.2458 16.8837 13.8605 16.8837C13.4752 16.8837 13.1628 16.5714 13.1628 16.186V10.1395C13.1628 9.75422 13.4752 9.44186 13.8605 9.44186Z" fill="black"/>
<path d="M2 5.48837C2 5.10306 2.31236 4.7907 2.69767 4.7907H21.3023C21.6876 4.7907 22 5.10306 22 5.48837C22 5.87369 21.6876 6.18605 21.3023 6.18605H2.69767C2.31236 6.18605 2 5.87369 2 5.48837Z" fill="black"/>
<path d="M9.19705 2.36231C9.31952 2.13889 9.55405 2 9.80884 2H14.2219C14.4788 2 14.715 2.1412 14.8365 2.36753L16.3355 5.15823C16.4517 5.37445 16.4457 5.63579 16.3197 5.84643C16.1937 6.05708 15.9664 6.18605 15.7209 6.18605H8.27907C8.03258 6.18605 7.80437 6.05598 7.67877 5.84388C7.55316 5.63179 7.5488 5.36916 7.66728 5.15301L9.19705 2.36231ZM10.222 3.39535L9.45713 4.7907H14.5542L13.8047 3.39535H10.222Z" fill="black"/>
</svg>
