<svg viewBox="0 0 24 24" fill="none" xmlns="http://www.w3.org/2000/svg">
<path d="M12.6285 4.26035C12.9757 4.60748 12.9757 5.1703 12.6285 5.51743L6.14597 12L12.6285 18.4826C12.9757 18.8297 12.9757 19.3925 12.6285 19.7396C12.2814 20.0868 11.7186 20.0868 11.3715 19.7396L4.26035 12.6285C3.91322 12.2814 3.91322 11.7186 4.26035 11.3715L11.3715 4.26035C11.7186 3.91322 12.2814 3.91322 12.6285 4.26035Z" fill="black"/>
<path d="M19.7397 4.26035C20.0868 4.60748 20.0868 5.1703 19.7397 5.51743L13.2571 12L19.7397 18.4826C20.0868 18.8297 20.0868 19.3925 19.7397 19.7396C19.3925 20.0868 18.8297 20.0868 18.4826 19.7396L11.3715 12.6285C11.0243 12.2814 11.0243 11.7186 11.3715 11.3715L18.4826 4.26035C18.8297 3.91322 19.3925 3.91322 19.7397 4.26035Z" fill="black"/>
</svg>
