<svg width="17" height="16" viewBox="0 0 17 16" fill="none" xmlns="http://www.w3.org/2000/svg">
<path d="M2 2C2 1.72386 2.22386 1.5 2.5 1.5H8.49723C8.77338 1.5 8.99723 1.72386 8.99723 2C8.99723 2.27614 8.77338 2.5 8.49723 2.5H3V13.5H8.5C8.77614 13.5 9 13.7239 9 14C9 14.2761 8.77614 14.5 8.5 14.5H2.5C2.22386 14.5 2 14.2761 2 14V2Z" fill="#515C68"/>
<path d="M11.1464 4.64645C11.3417 4.45118 11.6583 4.45118 11.8536 4.64645L14.8536 7.64645C15.0488 7.84171 15.0488 8.15829 14.8536 8.35355L11.8536 11.3536C11.6583 11.5488 11.3417 11.5488 11.1464 11.3536C10.9512 11.1583 10.9512 10.8417 11.1464 10.6464L13.7929 8L11.1464 5.35355C10.9512 5.15829 10.9512 4.84171 11.1464 4.64645Z" fill="#515C68"/>
<path d="M5.33333 7.99723C5.33333 7.72109 5.55719 7.49723 5.83333 7.49723H14.5C14.7761 7.49723 15 7.72109 15 7.99723C15 8.27338 14.7761 8.49723 14.5 8.49723H5.83333C5.55719 8.49723 5.33333 8.27338 5.33333 7.99723Z" fill="#515C68"/>
</svg>
