<svg viewBox="0 0 24 24" fill="none" xmlns="http://www.w3.org/2000/svg">
<g clip-path="url(#clip0_836_26821)">
<path d="M22.0001 12.2297C22.0001 11.5499 21.9438 10.8664 21.8239 10.1977H12.2006V14.0485H17.7114C17.4827 15.2905 16.7479 16.3891 15.672 17.0873V19.5859H18.9597C20.8904 17.8442 22.0001 15.2721 22.0001 12.2297Z" fill="#4285F4"/>
<path d="M12.2005 22C14.9522 22 17.2727 21.1145 18.9634 19.5859L15.6757 17.0873C14.761 17.6972 13.5801 18.0426 12.2043 18.0426C9.54262 18.0426 7.28583 16.2826 6.47608 13.9162H3.08339V16.492C4.81535 19.8688 8.343 22 12.2005 22Z" fill="#34A853"/>
<path d="M6.4724 13.9162C6.04504 12.6743 6.04504 11.3294 6.4724 10.0874V7.51166H3.08346C1.63641 10.3373 1.63641 13.6664 3.08346 16.492L6.4724 13.9162Z" fill="#FBBC04"/>
<path d="M12.2005 5.95738C13.6551 5.93533 15.0609 6.4718 16.1143 7.45655L19.0272 4.60151C17.1827 2.90392 14.7347 1.97061 12.2005 2C8.343 2 4.81535 4.13118 3.08339 7.51167L6.47233 10.0875C7.27833 7.71744 9.53887 5.95738 12.2005 5.95738Z" fill="#EA4335"/>
</g>
<defs>
<clipPath id="clip0_836_26821">
<rect width="20" height="20" fill="white" transform="translate(2 2)"/>
</clipPath>
</defs>
</svg>
