<svg viewBox="0 0 24 24" fill="none" xmlns="http://www.w3.org/2000/svg">
<path fill-rule="evenodd" clip-rule="evenodd" d="M11.5315 2.41435C11.8054 2.19522 12.1946 2.19522 12.4685 2.41435L19.9685 8.41435C20.1464 8.55668 20.25 8.77216 20.25 9V21C20.25 21.4142 19.9142 21.75 19.5 21.75H4.5C4.08579 21.75 3.75 21.4142 3.75 21V9C3.75 8.77216 3.85357 8.55668 4.03148 8.41435L11.5315 2.41435ZM5.25 9.36047V20.25H18.75V9.36047L12 3.96047L5.25 9.36047Z" fill="black"/>
<path fill-rule="evenodd" clip-rule="evenodd" d="M8.75 14.5C8.75 14.0858 9.08579 13.75 9.5 13.75H14.5C14.9142 13.75 15.25 14.0858 15.25 14.5V21C15.25 21.4142 14.9142 21.75 14.5 21.75H9.5C9.08579 21.75 8.75 21.4142 8.75 21V14.5ZM10.25 15.25V20.25H13.75V15.25H10.25Z" fill="black"/>
</svg>
