<svg viewBox="0 0 24 24" fill="none" xmlns="http://www.w3.org/2000/svg">
<path d="M4 11.9951C4 11.5042 4.39797 11.1062 4.88889 11.1062H19.1111C19.602 11.1062 20 11.5042 20 11.9951C20 12.486 19.602 12.884 19.1111 12.884H4.88889C4.39797 12.884 4 12.486 4 11.9951Z" fill="black"/>
<path d="M12.6285 4.26035C12.9757 4.60748 12.9757 5.1703 12.6285 5.51743L6.14597 12L12.6285 18.4826C12.9757 18.8297 12.9757 19.3925 12.6285 19.7396C12.2814 20.0868 11.7186 20.0868 11.3715 19.7396L4.26035 12.6285C3.91322 12.2814 3.91322 11.7186 4.26035 11.3715L11.3715 4.26035C11.7186 3.91322 12.2814 3.91322 12.6285 4.26035Z" fill="black"/>
</svg>
