<svg viewBox="0 0 24 24" fill="none" xmlns="http://www.w3.org/2000/svg">
<path d="M1.25 9.5C1.25 6.04824 4.04822 3.25 7.5 3.25C9.26772 3.25 10.8639 3.98438 12 5.16271C13.1361 3.98438 14.7323 3.25 16.5 3.25C19.9518 3.25 22.75 6.04824 22.75 9.5C22.75 12.5381 20.9668 15.3433 18.8454 17.4856C16.7168 19.6353 14.1191 21.2492 12.2365 21.8748C12.083 21.9259 11.917 21.9259 11.7635 21.8748C9.88091 21.2492 7.28321 19.6353 5.15457 17.4856C3.03322 15.3433 1.25 12.5381 1.25 9.5ZM7.5 4.75C4.87665 4.75 2.75 6.87666 2.75 9.5C2.75 11.9619 4.21678 14.4067 6.22043 16.4302C8.12163 18.3502 10.391 19.7727 12 20.3682C13.609 19.7727 15.8784 18.3502 17.7796 16.4302C19.7832 14.4067 21.25 11.9619 21.25 9.5C21.25 6.87666 19.1233 4.75 16.5 4.75C14.8941 4.75 13.4741 5.54621 12.6132 6.76872C12.4727 6.96821 12.244 7.0869 12 7.0869C11.756 7.0869 11.5273 6.96821 11.3868 6.76872C10.5259 5.54621 9.10588 4.75 7.5 4.75Z" fill="black"/>
</svg>
