<svg viewBox="0 0 24 24" fill="none" xmlns="http://www.w3.org/2000/svg">
<path d="M5.85921 4.7196C5.05292 4.7196 4.54997 5.44209 4.78031 6.12473C5.60619 8.57237 7.1452 12.2544 9.44039 14.5496C11.7355 16.8448 15.4176 18.3838 17.8653 19.2097C18.5479 19.44 19.2704 18.9371 19.2704 18.1308V15.6454C19.2704 15.5565 19.2222 15.4746 19.1445 15.4314L16.9796 14.2278C16.9089 14.1885 16.8234 14.1866 16.7511 14.2228L14.4423 15.3771C14.298 15.4493 14.1339 15.4719 13.9753 15.4415L14.1137 14.7199C13.9753 15.4415 13.9753 15.4415 13.9753 15.4415L13.9732 15.4411L13.9705 15.4406L13.9631 15.4391L13.9409 15.4345C13.9229 15.4307 13.8986 15.4253 13.8683 15.4181C13.8079 15.4038 13.7238 15.3825 13.6202 15.3526C13.4133 15.2929 13.1266 15.1984 12.7935 15.0564C12.13 14.7737 11.2639 14.2948 10.4795 13.5105C9.69529 12.7262 9.21504 11.8589 8.93099 11.1945C8.78833 10.8608 8.69314 10.5736 8.63288 10.3663C8.60271 10.2625 8.58116 10.1783 8.56671 10.1178C8.55949 10.0875 8.55403 10.0632 8.55014 10.0452L8.54548 10.023L8.54399 10.0157L8.54344 10.0129L8.54322 10.0118C8.54322 10.0118 8.54303 10.0108 9.26431 9.87052L8.54322 10.0118C8.51228 9.8527 8.53461 9.68687 8.60708 9.54191L9.7616 7.23283C9.79773 7.16059 9.79593 7.07508 9.75669 7.00439L8.55832 4.84571C8.51508 4.76783 8.43305 4.7196 8.34415 4.7196H5.85921ZM10.0437 9.9548L10.0441 9.95603C10.0903 10.1151 10.1663 10.3454 10.2823 10.6168C10.5156 11.1624 10.9027 11.8553 11.5187 12.4713M11.5187 12.4713C12.1346 13.0872 12.8258 13.4728 13.3696 13.7045C13.64 13.8197 13.8695 13.895 14.0278 13.9407L16.0938 12.9084C16.6002 12.6551 17.1989 12.6683 17.6937 12.9433L19.8585 14.1469C20.4027 14.4494 20.74 15.023 20.74 15.6454V18.1308C20.74 19.8558 19.1113 21.1811 17.3955 20.6021C14.9171 19.7659 10.9526 18.1402 8.40124 15.5888C5.84981 13.0374 4.22409 9.07293 3.38784 6.59458C2.80889 4.87874 4.13421 3.25 5.85921 3.25H8.34415C8.96702 3.25 9.54082 3.58784 9.84314 4.1323L11.0416 6.2911C11.3161 6.7857 11.3291 7.38401 11.076 7.8901L10.0437 9.9548" fill="black"/>
</svg>
