<svg viewBox="0 0 24 24" fill="none" xmlns="http://www.w3.org/2000/svg">
<path d="M8 7.25C5.11046 7.25 2.75 9.59119 2.75 12.5C2.75 12.9142 2.41421 13.25 2 13.25C1.58579 13.25 1.25 12.9142 1.25 12.5C1.25 8.75901 4.28578 5.75 8 5.75H22C22.4142 5.75 22.75 6.08579 22.75 6.5C22.75 6.91421 22.4142 7.25 22 7.25H8Z" fill="black"/>
<path d="M18.4697 2.96967C18.7626 2.67678 19.2374 2.67678 19.5303 2.96967L22.5303 5.96967C22.8232 6.26256 22.8232 6.73744 22.5303 7.03033L19.5303 10.0303C19.2374 10.3232 18.7626 10.3232 18.4697 10.0303C18.1768 9.73744 18.1768 9.26256 18.4697 8.96967L20.9393 6.5L18.4697 4.03033C18.1768 3.73744 18.1768 3.26256 18.4697 2.96967Z" fill="black"/>
<path d="M22 10.75C22.4142 10.75 22.75 11.0858 22.75 11.5C22.75 15.241 19.7142 18.25 16 18.25H2C1.58579 18.25 1.25 17.9142 1.25 17.5C1.25 17.0858 1.58579 16.75 2 16.75H16C18.8896 16.75 21.25 14.4088 21.25 11.5C21.25 11.0858 21.5858 10.75 22 10.75Z" fill="black"/>
<path d="M5.53033 13.9697C5.82322 14.2626 5.82322 14.7374 5.53033 15.0303L3.06066 17.5L5.53033 19.9697C5.82322 20.2626 5.82322 20.7374 5.53033 21.0303C5.23744 21.3232 4.76256 21.3232 4.46967 21.0303L1.46967 18.0303C1.17678 17.7374 1.17678 17.2626 1.46967 16.9697L4.46967 13.9697C4.76256 13.6768 5.23744 13.6768 5.53033 13.9697Z" fill="black"/>
</svg>
