<svg viewBox="0 0 24 24" fill="none" xmlns="http://www.w3.org/2000/svg">
<path d="M12 6.75C11.3878 6.75 10.7851 6.8318 10.1966 6.97791C9.79458 7.0777 9.38778 6.83271 9.28798 6.4307C9.18819 6.02869 9.43318 5.62189 9.83519 5.52209C10.5292 5.3498 11.2535 5.25 12 5.25C15.0225 5.25 17.6917 6.88254 19.5497 8.42257C20.4893 9.20141 21.2478 9.97852 21.7717 10.5609C22.0341 10.8526 22.2388 11.0967 22.3791 11.2694C22.4492 11.3559 22.5034 11.4245 22.5406 11.4725C22.5593 11.4965 22.5737 11.5153 22.5838 11.5286L22.5957 11.5443L22.5992 11.549L22.6004 11.5505C22.6004 11.5505 22.6011 11.5515 22 12C22.6011 12.4485 22.6009 12.4487 22.6009 12.4487L22.5992 12.451L22.5957 12.4557L22.5838 12.4714C22.5737 12.4847 22.5593 12.5035 22.5406 12.5275C22.5034 12.5755 22.4492 12.6441 22.3791 12.7306C22.2388 12.9033 22.0341 13.1474 21.7717 13.4391C21.2478 14.0215 20.4893 14.7986 19.5497 15.5774C19.2308 15.8418 18.758 15.7975 18.4936 15.4786C18.2293 15.1597 18.2735 14.6869 18.5924 14.4226C19.4625 13.7014 20.1684 12.9785 20.6566 12.4359C20.804 12.272 20.9312 12.125 21.0366 12C20.9312 11.875 20.804 11.728 20.6566 11.5641C20.1684 11.0215 19.4625 10.2986 18.5924 9.57743C16.8311 8.11746 14.5003 6.75 12 6.75ZM22 12L22.6009 12.4487C22.7995 12.1827 22.7996 11.8175 22.6011 11.5515L22 12ZM4.4503 8.42258C4.74433 8.17885 5.17455 8.195 5.44949 8.46009L14.5206 17.2061C14.7168 17.3954 14.7949 17.6762 14.7246 17.9396C14.6542 18.203 14.4465 18.4075 14.182 18.4736C13.4827 18.6486 12.7526 18.75 12 18.75C8.97746 18.75 6.30824 17.1175 4.4503 15.5774C3.51069 14.7986 2.75217 14.0215 2.22826 13.4391C1.96587 13.1474 1.76119 12.9033 1.62091 12.7306C1.55074 12.6441 1.49661 12.5755 1.45935 12.5275C1.44071 12.5035 1.42629 12.4847 1.41618 12.4714L1.40426 12.4557L1.40075 12.451L1.39962 12.4495C1.39962 12.4495 1.39889 12.4485 1.99999 12C1.39889 11.5515 1.39904 11.5513 1.39904 11.5513L1.40076 11.549L1.40426 11.5443L1.41618 11.5286C1.42629 11.5153 1.44071 11.4965 1.45935 11.4725C1.49661 11.4245 1.55074 11.3559 1.62091 11.2694C1.76119 11.0967 1.96587 10.8526 2.22826 10.5609C2.75217 9.97852 3.51069 9.20141 4.4503 8.42258ZM1.99999 12L1.39904 11.5513C1.2005 11.8173 1.20036 12.1825 1.39889 12.4485L1.99999 12ZM2.96339 12C3.06878 12.125 3.19595 12.272 3.34342 12.4359C3.83157 12.9785 4.53751 13.7014 5.40754 14.4226C7.16889 15.8825 9.49966 17.25 12 17.25C12.1316 17.25 12.2627 17.2462 12.3934 17.2388L4.89998 10.0139C4.26072 10.5838 3.73279 11.1313 3.34342 11.5641C3.19595 11.728 3.06878 11.875 2.96339 12Z" fill="black"/>
<path d="M10.664 9.75789C10.9693 10.0379 10.9898 10.5123 10.7098 10.8176C10.4237 11.1296 10.25 11.5437 10.25 12C10.25 12.9665 11.0335 13.75 12 13.75C12.4772 13.75 12.9085 13.56 13.225 13.2498C13.5208 12.9598 13.9956 12.9645 14.2856 13.2603C14.5755 13.5561 14.5708 14.031 14.275 14.3209C13.6896 14.8948 12.8855 15.25 12 15.25C10.2051 15.25 8.74999 13.7949 8.74999 12C8.74999 11.1537 9.07443 10.3816 9.60433 9.80374C9.8843 9.49846 10.3587 9.47793 10.664 9.75789Z" fill="black"/>
<path d="M2.46966 2.46967C2.76255 2.17678 3.23743 2.17678 3.53032 2.46967L21.5303 20.4697C21.8232 20.7626 21.8232 21.2374 21.5303 21.5303C21.2374 21.8232 20.7626 21.8232 20.4697 21.5303L2.46966 3.53033C2.17677 3.23744 2.17677 2.76256 2.46966 2.46967Z" fill="black"/>
</svg>
