<svg viewBox="0 0 24 24" fill="none" xmlns="http://www.w3.org/2000/svg">
<path d="M4.45031 8.42257C6.30824 6.88254 8.97747 5.25 12 5.25C15.0225 5.25 17.6918 6.88254 19.5497 8.42257C20.4893 9.20141 21.2478 9.97852 21.7717 10.5609C22.0341 10.8526 22.2388 11.0967 22.3791 11.2694C22.4492 11.3559 22.5034 11.4245 22.5406 11.4725C22.5593 11.4965 22.5737 11.5153 22.5838 11.5286L22.5957 11.5443L22.5992 11.549L22.6004 11.5505C22.6004 11.5505 22.6011 11.5515 22 12C22.6011 12.4485 22.6008 12.4489 22.6008 12.4489L22.5992 12.451L22.5957 12.4557L22.5838 12.4714C22.5737 12.4847 22.5593 12.5035 22.5406 12.5275C22.5034 12.5755 22.4492 12.6441 22.3791 12.7306C22.2388 12.9033 22.0341 13.1474 21.7717 13.4391C21.2478 14.0215 20.4893 14.7986 19.5497 15.5774C17.6918 17.1175 15.0225 18.75 12 18.75C8.97747 18.75 6.30824 17.1175 4.45031 15.5774C3.5107 14.7986 2.75217 14.0215 2.22827 13.4391C1.96588 13.1474 1.76119 12.9033 1.62092 12.7306C1.55075 12.6441 1.49662 12.5755 1.45935 12.5275C1.44072 12.5035 1.42629 12.4847 1.41619 12.4714L1.40427 12.4557L1.40076 12.451L1.39963 12.4495C1.39963 12.4495 1.3989 12.4485 2 12C1.3989 11.5515 1.39921 11.5511 1.39921 11.5511L1.40076 11.549L1.40427 11.5443L1.41619 11.5286C1.42629 11.5153 1.44072 11.4965 1.45935 11.4725C1.49662 11.4245 1.55075 11.3559 1.62092 11.2694C1.76119 11.0967 1.96588 10.8526 2.22827 10.5609C2.75217 9.97852 3.5107 9.20141 4.45031 8.42257ZM2 12L1.39921 11.5511C1.20067 11.8171 1.20036 12.1825 1.3989 12.4485L2 12ZM2.96339 12C3.06879 12.125 3.19596 12.272 3.34343 12.4359C3.83157 12.9785 4.53752 13.7014 5.40755 14.4226C7.1689 15.8825 9.49967 17.25 12 17.25C14.5003 17.25 16.8311 15.8825 18.5924 14.4226C19.4625 13.7014 20.1684 12.9785 20.6566 12.4359C20.804 12.272 20.9312 12.125 21.0366 12C20.9312 11.875 20.804 11.728 20.6566 11.5641C20.1684 11.0215 19.4625 10.2986 18.5924 9.57743C16.8311 8.11746 14.5003 6.75 12 6.75C9.49967 6.75 7.1689 8.11746 5.40755 9.57743C4.53752 10.2986 3.83157 11.0215 3.34343 11.5641C3.19596 11.728 3.06879 11.875 2.96339 12ZM22 12L22.6008 12.4489C22.7993 12.1829 22.7996 11.8175 22.6011 11.5515L22 12Z" fill="black"/>
<path d="M8.75 12C8.75 10.2051 10.2051 8.75 12 8.75C13.7949 8.75 15.25 10.2051 15.25 12C15.25 13.7949 13.7949 15.25 12 15.25C10.2051 15.25 8.75 13.7949 8.75 12ZM12 10.25C11.0335 10.25 10.25 11.0335 10.25 12C10.25 12.9665 11.0335 13.75 12 13.75C12.9665 13.75 13.75 12.9665 13.75 12C13.75 11.0335 12.9665 10.25 12 10.25Z" fill="black"/>
</svg>
