<svg viewBox="0 0 24 24" fill="none" xmlns="http://www.w3.org/2000/svg">
<path d="M21.3463 7.33474C21.7137 7.52599 21.8565 7.97889 21.6653 8.3463C21.2927 9.06202 20.7402 9.70359 20.064 10.2578C18.1797 11.8021 15.2388 12.75 12 12.75C8.76127 12.75 5.82034 11.8021 3.93599 10.2578C3.25976 9.70359 2.70732 9.06201 2.33475 8.34631C2.14349 7.9789 2.28629 7.526 2.6537 7.33474C3.02111 7.14348 3.47401 7.28628 3.66527 7.65369C3.92742 8.15729 4.33671 8.64681 4.88679 9.09762C6.44067 10.3711 9.01775 11.25 12 11.25C14.9823 11.25 17.5593 10.3712 19.1132 9.09763C19.6633 8.64681 20.0726 8.15728 20.3347 7.6537C20.526 7.28629 20.9789 7.14348 21.3463 7.33474Z" fill="black"/>
<path d="M14.2948 11.2756C14.6949 11.1684 15.1061 11.4058 15.2133 11.8059L16.2486 15.6696C16.3558 16.0697 16.1183 16.4809 15.7182 16.5881C15.3181 16.6954 14.9069 16.4579 14.7997 16.0578L13.7644 12.1941C13.6572 11.794 13.8946 11.3828 14.2948 11.2756Z" fill="black"/>
<path d="M18.1464 10.1465C18.4393 9.85358 18.9142 9.85358 19.2071 10.1465L22.0355 12.9749C22.3284 13.2678 22.3284 13.7426 22.0355 14.0355C21.7427 14.3284 21.2678 14.3284 20.9749 14.0355L18.1464 11.2071C17.8535 10.9142 17.8535 10.4394 18.1464 10.1465Z" fill="black"/>
<path d="M5.85874 10.1465C6.15163 10.4394 6.15163 10.9142 5.85874 11.2071L3.03033 14.0355C2.73744 14.3284 2.26256 14.3284 1.96967 14.0355C1.67678 13.7426 1.67678 13.2678 1.96967 12.9749L4.79808 10.1465C5.09097 9.85358 5.56585 9.85358 5.85874 10.1465Z" fill="black"/>
<path d="M9.69323 11.2756C10.0933 11.3828 10.3308 11.794 10.2236 12.1941L9.18825 16.0578C9.08105 16.4579 8.66979 16.6954 8.26969 16.5881C7.86959 16.4809 7.63216 16.0697 7.73937 15.6696L8.77467 11.8059C8.88188 11.4058 9.29313 11.1684 9.69323 11.2756Z" fill="black"/>
</svg>
