<svg viewBox="0 0 24 24" fill="none" xmlns="http://www.w3.org/2000/svg">
<path d="M12 3.75C7.44366 3.75 3.75 7.44366 3.75 12C3.75 16.5563 7.44366 20.25 12 20.25C14.2784 20.25 16.3399 19.3274 17.8336 17.8336C18.1265 17.5407 18.6014 17.5407 18.8943 17.8336C19.1872 18.1265 19.1872 18.6014 18.8943 18.8943C17.1307 20.6579 14.6922 21.75 12 21.75C6.61524 21.75 2.25 17.3848 2.25 12C2.25 6.61524 6.61524 2.25 12 2.25C14.6922 2.25 17.1307 3.34212 18.8943 5.10572M18.8943 5.10572C19.3237 5.5351 19.9945 6.26432 20.5484 6.87504C20.8275 7.18275 21.0804 7.46428 21.2635 7.66887C21.3551 7.77119 21.4293 7.85433 21.4807 7.91195L21.5604 8.00158L20.4392 8.99799L20.3608 8.90993C20.3101 8.85303 20.2366 8.77071 20.1459 8.6693C19.9643 8.46643 19.7136 8.18742 19.4373 7.88276C18.8804 7.26876 18.2332 6.566 17.8336 6.16638C16.3399 4.6726 14.2784 3.75 12 3.75M21.498 9.0608C21.1883 9.33584 20.7142 9.30771 20.4392 8.99799L21.5604 8.00158C21.8355 8.3113 21.8077 8.78577 21.498 9.0608Z" fill="black"/>
<path d="M21 3.25C21.4142 3.25 21.75 3.58579 21.75 4V8.5C21.75 8.91421 21.4142 9.25 21 9.25H16.5C16.0858 9.25 15.75 8.91421 15.75 8.5C15.75 8.08579 16.0858 7.75 16.5 7.75H20.25V4C20.25 3.58579 20.5858 3.25 21 3.25Z" fill="black"/>
</svg>
