<svg viewBox="0 0 24 24" fill="none" xmlns="http://www.w3.org/2000/svg">
<path fill-rule="evenodd" clip-rule="evenodd" d="M17 5C17 4.58579 17.3358 4.25 17.75 4.25H20.75C21.1642 4.25 21.5 4.58579 21.5 5C21.5 5.41421 21.1642 5.75 20.75 5.75H17.75C17.3358 5.75 17 5.41421 17 5Z" fill="black"/>
<path fill-rule="evenodd" clip-rule="evenodd" d="M13.75 2.25C14.1642 2.25 14.5 2.58579 14.5 3V7C14.5 7.41421 14.1642 7.75 13.75 7.75C13.3358 7.75 13 7.41421 13 7V3C13 2.58579 13.3358 2.25 13.75 2.25Z" fill="black"/>
<path fill-rule="evenodd" clip-rule="evenodd" d="M2 5C2 4.58579 2.33579 4.25 2.75 4.25H13.75C14.1642 4.25 14.5 4.58579 14.5 5C14.5 5.41421 14.1642 5.75 13.75 5.75H2.75C2.33579 5.75 2 5.41421 2 5Z" fill="black"/>
<path fill-rule="evenodd" clip-rule="evenodd" d="M2 12C2 11.5858 2.33579 11.25 2.75 11.25H6.75C7.16421 11.25 7.5 11.5858 7.5 12C7.5 12.4142 7.16421 12.75 6.75 12.75H2.75C2.33579 12.75 2 12.4142 2 12Z" fill="black"/>
<path fill-rule="evenodd" clip-rule="evenodd" d="M10.75 9.25C11.1642 9.25 11.5 9.58579 11.5 10V14C11.5 14.4142 11.1642 14.75 10.75 14.75C10.3358 14.75 10 14.4142 10 14V10C10 9.58579 10.3358 9.25 10.75 9.25Z" fill="black"/>
<path fill-rule="evenodd" clip-rule="evenodd" d="M10 12C10 11.5858 10.3358 11.25 10.75 11.25H21.75C22.1642 11.25 22.5 11.5858 22.5 12C22.5 12.4142 22.1642 12.75 21.75 12.75H10.75C10.3358 12.75 10 12.4142 10 12Z" fill="black"/>
<path fill-rule="evenodd" clip-rule="evenodd" d="M17 19C17 18.5858 17.3358 18.25 17.75 18.25H20.75C21.1642 18.25 21.5 18.5858 21.5 19C21.5 19.4142 21.1642 19.75 20.75 19.75H17.75C17.3358 19.75 17 19.4142 17 19Z" fill="black"/>
<path fill-rule="evenodd" clip-rule="evenodd" d="M13.75 16.25C14.1642 16.25 14.5 16.5858 14.5 17V21C14.5 21.4142 14.1642 21.75 13.75 21.75C13.3358 21.75 13 21.4142 13 21V17C13 16.5858 13.3358 16.25 13.75 16.25Z" fill="black"/>
<path fill-rule="evenodd" clip-rule="evenodd" d="M2 19C2 18.5858 2.33579 18.25 2.75 18.25H13.75C14.1642 18.25 14.5 18.5858 14.5 19C14.5 19.4142 14.1642 19.75 13.75 19.75H2.75C2.33579 19.75 2 19.4142 2 19Z" fill="black"/>
</svg>
