<svg viewBox="0 0 24 24" fill="none" xmlns="http://www.w3.org/2000/svg">
<path d="M12 4L9.55463 9.25373L4 10.1015L8.02384 14.2421L7.06197 20L12 17.2291V4Z" fill="black"/>
<path fill-rule="evenodd" clip-rule="evenodd" d="M11.9978 3C12.2369 2.99936 12.4556 3.14117 12.5619 3.36577L15.0079 8.53465L20.4627 9.36884C20.6989 9.40496 20.8951 9.5784 20.9691 9.8164C21.043 10.0544 20.9819 10.3158 20.8114 10.491L16.8441 14.5659L17.7864 20.2282C17.8277 20.4762 17.7306 20.7271 17.5362 20.8748C17.3419 21.0224 17.0843 21.041 16.8725 20.9226L11.9994 18.1986L7.12747 20.9226C6.91557 21.0411 6.65779 21.0224 6.46341 20.8745C6.26903 20.7267 6.17208 20.4755 6.21367 20.2274L7.16284 14.5659L3.18898 10.4914C3.01817 10.3162 2.9569 10.0546 3.03092 9.81643C3.10494 9.57823 3.30141 9.40471 3.53782 9.36876L9.02242 8.53466L11.4355 3.36881C11.5407 3.14363 11.7587 3.00065 11.9978 3ZM12.0031 5.14755L10.0044 9.42623C9.91313 9.62154 9.73583 9.75702 9.5306 9.78823L4.97527 10.481L8.27757 13.867C8.42577 14.0189 8.49293 14.2378 8.45704 14.4519L7.67362 19.1247L11.704 16.8712C11.8886 16.768 12.1101 16.768 12.2948 16.8712L16.3281 19.1258L15.5502 14.4511C15.5146 14.2374 15.5816 14.0191 15.7294 13.8674L19.027 10.4803L14.5011 9.78815C14.2972 9.75697 14.1209 9.62285 14.0293 9.42927L12.0031 5.14755Z" fill="black"/>
</svg>
